<svg xmlns="http://www.w3.org/2000/svg" xmlns:xlink="http://www.w3.org/1999/xlink" width="300" zoomAndPan="magnify" viewBox="0 0 224.87999 225" height="300" preserveAspectRatio="xMidYMid meet" version="1.0"><defs><g/></defs><g fill="#000000" fill-opacity="1"><g transform="translate(-4.356255, 214.099467)"><g><path d="M 40.675781 -55.03125 L 5.871094 -47.855469 C 5.871094 -16.3125 22.839844 1.738281 53.074219 1.738281 C 83.308594 1.738281 100.492188 -16.3125 100.492188 -47.855469 L 100.492188 -108.757812 L 65.039062 -108.757812 L 65.039062 -47.855469 C 65.039062 -35.671875 60.90625 -28.929688 53.292969 -28.929688 C 45.242188 -28.929688 40.675781 -35.671875 40.675781 -47.855469 Z M 40.675781 -55.03125 "/></g></g></g><g fill="#000000" fill-opacity="1"><g transform="translate(53.259387, 113.732687)"><g><path d="M 127.863281 0 L 127.863281 -109.660156 L 96.0625 -109.660156 L 67.550781 -52.417969 L 39.039062 -109.660156 L 7.238281 -109.660156 L 7.238281 0 L 42.769531 0 L 42.769531 -44.082031 L 60.53125 -11.84375 L 74.570312 -11.84375 L 92.117188 -44.082031 L 92.117188 0 Z M 127.863281 0 "/></g></g></g><g fill="#000000" fill-opacity="1"><g transform="translate(103.869105, 220.859979)"><g><path d="M 77.347656 -15.726562 L 82.949219 0 L 116.988281 0 L 77.128906 -107.722656 L 41.796875 -107.722656 L 1.507812 0 L 35.332031 0 L 41.152344 -15.726562 Z M 67.867188 -41.582031 L 50.628906 -41.582031 L 59.464844 -71.097656 Z M 67.867188 -41.582031 "/></g></g></g></svg>